<svg id="Layer_1" data-name="Layer 1" xmlns="http://www.w3.org/2000/svg" width="64" height="64" viewBox="0 0 64 64"><defs><style>.cls-1{fill:#1d1d1b;}.cls-2{fill:#92a0d1;}.cls-3{fill:#696a9b;}.cls-4{fill:#e7413e;}.cls-5{fill:#85bfe9;}.cls-6{fill:#f2910d;}.cls-7{fill:#cbe7f5;}</style></defs><title>laser-gun</title><g id="laser-gun"><path class="cls-1" d="M10.64,22.93a8.85,8.85,0,0,0-3.22-2A7.77,7.77,0,0,1,4.8,20c-.09-.19-.16-.66.13-.84a18.9,18.9,0,0,1,8-4.5c5.09-1.41,7.31-1.12,7.91-.94a11.15,11.15,0,0,1,1.47.66s2.19-2.22,8.44-2.25,9.06,2.69,9.06,2.69S43.61,12,44,11.8a1.15,1.15,0,0,1,1.5.28,25.06,25.06,0,0,1,.84,4.38,11.77,11.77,0,0,0,1.78-.16c0-.09-.59-4-.34-4.09s3.53.25,3.56.59,0,1,.13,1.72a5.36,5.36,0,0,0,.25,1.09l1.88-.12A2.5,2.5,0,0,1,56,13.24c2.22-.25,3.63,1.63,3.28,3.84s-2.66,2-3.19,1.84a2,2,0,0,1-.81-.44L53.64,20s.81,1.38,1.22,1.88.72.59.66.88-2,3.63-2.37,3.5A11.82,11.82,0,0,1,51,23.43c-.56-1-.94-1.75-.94-1.75l-1.34,1.25a28.74,28.74,0,0,0,1.81,4C51.64,28.8,52,29,51.76,29.3s-4.62.31-5.69.34-2,0-2,0-.56,2.5-4.25,4.31a15.75,15.75,0,0,1-6.28,1.81s-.5,4.81-1.72,5.63-4.34.78-4.34.78a52,52,0,0,0,.06,5.28c.19,2.22.75,3.75-1,4.47s-7.78.44-9.53.22S13.2,50.8,13.51,49s3.88-12.56,3.88-12.56a27.18,27.18,0,0,1-7.94-3.25C6.42,31.08,7,26.86,10.64,22.93Z"/><path class="cls-2" d="M8.17,19.15c0-.28,3.31-2.19,6.25-3.12s4.94-.78,4.78-.59a37.86,37.86,0,0,0-5.06,3.88c-1.69,1.78-2.22,2.53-2.31,2.41S10.7,20.11,9.7,19.93,8.14,19.33,8.17,19.15Z"/><path class="cls-3" d="M17.45,18.86a22,22,0,0,1,11.13-5c4.66-.56,8.12.09,10.72,2.69s3.63,7.16,3.72,8.72a9.15,9.15,0,0,1-.37,3,19.61,19.61,0,0,0-1.91-2.59c-.22,0-.56.22-.56.44s2.06,3,1.94,3.28-.59,1.44-.78,1.47S39.17,27.27,39,27.21s-.59,0-.62.19,2.22,4,2.22,4-1,.78-1.09.72-2.25-4-2.44-4-.72.25-.69.38,2.44,3.94,2.31,4.06-1.16.69-1.22.56-2.44-4-2.62-4-.72.41-.69.5,2.44,3.72,2.25,3.84-.94.41-1,.28S33.14,30.61,33,30.61s-.81.38-.78.53,2.16,2.81,2,2.91a4.48,4.48,0,0,1-.94.19,27.54,27.54,0,0,0-2.09-2.84c-.19,0-.69.19-.69.28s1.69,2.56,1.59,2.66a6.16,6.16,0,0,1-1.16.22A20.13,20.13,0,0,0,29.26,32c-.19,0-1,.28-.91.41s1.5,2.22,1.31,2.31a35.8,35.8,0,0,1-8.59.25c-4.5-.37-8.44-2-10-3.31S9,29.08,10.26,26.9A40.24,40.24,0,0,1,17.45,18.86Z"/><path class="cls-4" d="M40.86,15.65c.16-.16,3.16-2.22,3.16-2a24.6,24.6,0,0,0,2.06,8.22c1.84,4.13,3.06,5.94,3,6s-3.94.13-3.94.13a19.29,19.29,0,0,0-1.22-7.66A15.2,15.2,0,0,0,40.86,15.65Z"/><path class="cls-5" d="M46.7,17.43a3.09,3.09,0,0,1,1.53-.09c.13.13.22.66.75,1.88s.69,1.66.69,1.66l-1.44.94A10.9,10.9,0,0,1,46.7,17.43Z"/><path class="cls-6" d="M49,13.71c0-.22,1.41-.09,1.47,0a29.8,29.8,0,0,0,1.22,4.69A30.66,30.66,0,0,0,54.26,23c0,.19-.91,1.63-1,1.53A18.47,18.47,0,0,1,50,18.71,29.6,29.6,0,0,1,49,13.71Z"/><path class="cls-5" d="M52.33,16.46c0-.16,1.25-.12,1.25-.12a2.35,2.35,0,0,0,.38,1l.44.63s-1.06,1.13-1.22,1A2.93,2.93,0,0,1,52.33,16.46Z"/><path class="cls-7" d="M56.45,14.36a1.76,1.76,0,0,1,1.75,2.31,1.54,1.54,0,0,1-2.78.59C54.39,16.11,54.48,14.21,56.45,14.36Z"/><path class="cls-6" d="M29,36.74c.05-.08,2.56-.31,2.56-.31s-1,3.72-1.12,3.84a7,7,0,0,1-2.47.34A6.29,6.29,0,0,1,29,36.74Z"/><path class="cls-4" d="M19.48,36.61a14.09,14.09,0,0,0,3.44.31c2.13,0,3.63-.19,3.63-.19a13.31,13.31,0,0,0-.84,3.19c-.16,1.53-.28,2.34-.28,2.34A26.51,26.51,0,0,0,23,39.71c-.19,0-.47.72-.41.84s2.75,2.75,2.78,2.91.06,2.19.16,2.81.19,1.5.19,1.5S22.2,44.15,22,44.15s-.44.81-.44.81,4.28,4.16,4.28,4.41.16,1.25-.06,1.25a1.56,1.56,0,0,1-.56,0c-.12-.06-4.31-4.37-4.5-4.41s-.59.5-.53.69,3.88,3.69,3.69,3.75a8.91,8.91,0,0,1-1.25,0,39.54,39.54,0,0,0-3.34-3c-.22,0-.69.69-.62.78s2.53,2.25,2.53,2.25a22.52,22.52,0,0,1-4.37-.47c-1.22-.41-1.31-1.06-1.22-1.47S19.26,37,19.48,36.61Z"/><path class="cls-1" d="M23.64,38.68c-.08-.06.25-.66.38-.59s1.06.78,1,1.09-.19.59-.28.56S23.83,38.83,23.64,38.68Z"/><path class="cls-1" d="M22.55,42c0-.24,2.22,2,2.22,2.13s.16,1.22,0,1.19a20.39,20.39,0,0,1-2.44-2.25C22.17,42.86,22.55,42.15,22.55,42Z"/><path class="cls-1" d="M18.3,21.36A33.2,33.2,0,0,1,20.11,25c-.09.19-.47.53-.62.34a28.74,28.74,0,0,1-2.06-3.62A1.6,1.6,0,0,1,18.3,21.36Z"/><path class="cls-1" d="M19.86,19.71c0-.11.72-.44.91-.41a29.22,29.22,0,0,1,2.5,4.94.73.73,0,0,1-.72.44C22.42,24.61,19.86,19.86,19.86,19.71Z"/><path class="cls-1" d="M22.73,17.86a1.57,1.57,0,0,1,1.13-.37,24.09,24.09,0,0,1,2.34,4.66c-.06.22-.84.59-1.06.38S22.61,18.21,22.73,17.86Z"/><path class="cls-1" d="M26,17.8c.19-.12.72-.41.84-.28A19.62,19.62,0,0,1,28.3,21c-.09.22-.69.59-.87.44S26,17.8,26,17.8Z"/><path class="cls-1" d="M32.42,14.9a8.48,8.48,0,0,1,3.06.56c1.41.44,2.06.84,2.09,1.06s-.22,1-.34,1a24.18,24.18,0,0,0-2.5-1c-1.12-.31-2.25-.25-2.41-.44S32.2,15,32.42,14.9Z"/></g></svg>